<?xml version="1.0" encoding="iso-8859-1"?>
<!-- Generator: Adobe Illustrator 16.0.0, SVG Export Plug-In . SVG Version: 6.00 Build 0)  -->
<!DOCTYPE svg PUBLIC "-//W3C//DTD SVG 1.1//EN" "http://www.w3.org/Graphics/SVG/1.1/DTD/svg11.dtd">
<svg version="1.1" xmlns="http://www.w3.org/2000/svg" xmlns:xlink="http://www.w3.org/1999/xlink" x="0px" y="0px" width="1200px"
	 height="1200px" viewBox="0 0 1200 1200" style="enable-background:new 0 0 1200 1200;" xml:space="preserve">
<g id="&#x30EC;&#x30A4;&#x30E4;&#x30FC;_1">
	<g>
		<path style="stroke:#000000;stroke-width:12;stroke-miterlimit:10;" d="M390.81,560.861c-4.68,0-9.211-0.782-13.59-2.34
			c-4.382-1.561-8.491-3.631-12.33-6.21c-3.842-2.582-7.411-5.552-10.71-8.91c-3.302-3.361-6.272-6.84-8.91-10.44
			c-5.04-7.079-9.571-13.77-13.59-20.07c-4.022-6.3-7.172-11.548-9.45-15.75c-0.36-0.838,0-1.319,1.08-1.44
			c5.4-0.599,10.35-1.769,14.85-3.51c4.5-1.738,8.308-3.808,11.43-6.21c3.119-2.399,5.549-5.009,7.29-7.83
			c1.738-2.818,2.61-5.549,2.61-8.19c0-5.4-2.61-9.149-7.83-11.25c-5.22-2.098-12.572-3.15-22.05-3.15
			c-7.681,0-15.061,0.72-22.14,2.16c-3.842,0.841-7.712,1.98-11.61,3.42c-3.901,1.44-7.411,3.001-10.53,4.68
			c-1.44,0.841-2.16,1.862-2.16,3.06c-0.242,1.08-0.54,2.312-0.9,3.69c-0.179,0.686-0.358,1.32-0.537,1.902
			c0.944-0.563,1.888-1.124,2.834-1.681c0.742-1.042,1.533-2.048,2.382-3.011c1.8-2.039,3.718-3.659,5.76-4.86
			c3.119-1.679,6.48-3.119,10.08-4.32c3.6-1.198,7.2-1.918,10.8-2.16c0.599,0,0.99,0.121,1.17,0.36c0.18,0.242,0.09,0.841-0.27,1.8
			c-5.521,10.44-12.06,21.96-19.62,34.56c-7.13,11.882-15.828,25.334-26.052,40.312c4.873-1.287,9.681-2.766,14.373-4.555
			c0.816-1.647,1.768-3.516,2.859-5.607c2.16-4.14,4.649-8.758,7.47-13.86c2.818-5.099,5.788-10.35,8.91-15.75
			c3.119-5.4,6.12-10.5,9-15.3c2.88-4.798,5.518-9.028,7.92-12.69c2.399-3.659,4.258-6.269,5.58-7.83
			c0.838-0.959,1.828-1.589,2.97-1.89c1.139-0.298,2.309-0.45,3.51-0.45c3.479,0,6.359,0.422,8.64,1.26
			c2.278,0.841,4.109,1.89,5.49,3.15c1.378,1.26,2.34,2.7,2.88,4.32s0.81,3.15,0.81,4.59c0,4.081-0.931,7.65-2.79,10.71
			c-1.862,3.06-4.441,5.58-7.74,7.56c-3.302,1.98-7.2,3.451-11.7,4.41c-4.5,0.962-9.45,1.44-14.85,1.44
			c-0.36,0-0.54,0.242-0.54,0.72c1.08,1.8,2.43,4.112,4.05,6.93c1.62,2.821,3.33,5.732,5.13,8.73c1.8,3.001,3.538,5.912,5.22,8.73
			c1.679,2.821,3.119,5.192,4.32,7.11c4.199,6.48,8.249,11.998,12.15,16.56c3.898,4.559,8.01,8.28,12.33,11.16
			s9.059,5.009,14.22,6.39c5.158,1.378,11.16,2.07,18,2.07c3.932,0,7.661-0.43,11.193-1.277c0.419-0.729,0.852-1.449,1.283-2.17
			C396.618,560.542,393.719,560.861,390.81,560.861z"/>
	</g>
</g>
<g id="&#x30EC;&#x30A4;&#x30E4;&#x30FC;_2">
	<g>
		<path style="stroke:#000000;stroke-width:12;stroke-miterlimit:10;" d="M428.376,484.331c2.278,0.062,4.438,0.031,6.48-0.09
			c1.479-0.062,2.897-0.164,4.261-0.305c1.327-1.35,2.594-2.807,3.819-4.283c-5.206,1.994-11.605,3.054-19.239,3.147h-7.74
			c-3.482,0-6.961-0.028-10.44-0.09c-3.482-0.059-6.961-0.09-10.44-0.09c-3.721,0-7.442-0.028-11.16-0.09
			c-3.721-0.059-7.082,0.211-10.08,0.81c-2.762,0.481-5.282,1.62-7.56,3.42c-2.281,1.8-4.351,3.991-6.21,6.57
			c-1.862,2.582-3.51,5.4-4.95,8.46c-0.695,1.478-1.347,2.978-1.958,4.498c1.046-0.427,2.092-0.855,3.144-1.269
			c1.566-2.917,3.209-5.443,4.935-7.548c2.998-3.659,6.39-6.449,10.17-8.37c3.78-1.918,8.159-3.178,13.14-3.78
			c4.979-0.599,10.71-0.9,17.19-0.9h5.94c1.198,0,1.499,0.54,0.9,1.62c-2.52,4.801-5.282,9.81-8.28,15.03
			c-3,5.22-6.092,10.561-9.27,16.02c-3.181,5.462-6.421,10.952-9.72,16.47c-3.302,5.521-6.57,10.921-9.81,16.2
			c-0.841,1.322-1.502,2.582-1.98,3.78c-0.481,1.201-0.72,2.281-0.72,3.24c0,1.561,0.388,2.762,1.17,3.6
			c0.779,0.841,1.8,1.471,3.06,1.89c1.26,0.419,2.7,0.658,4.32,0.72c1.62,0.059,3.33,0.09,5.13,0.09c2.16,0,4.5-0.031,7.02-0.09
			c2.52-0.062,4.798-0.211,6.84-0.45c0.72-0.481,0.9-0.959,0.54-1.44c-0.602,0.121-1.322,0.18-2.16,0.18h-2.16
			c-2.641,0-4.77-0.208-6.39-0.63c-1.62-0.419-2.852-0.959-3.69-1.62c-0.841-0.658-1.381-1.44-1.62-2.34
			c-0.242-0.9-0.36-1.828-0.36-2.79c0.118-1.44,0.509-3.029,1.17-4.77c0.658-1.738,1.53-3.628,2.61-5.67
			c4.68-8.519,9.869-17.64,15.57-27.36c5.698-9.72,11.908-19.679,18.63-29.88c0.838-1.198,2.098-1.8,3.78-1.8
			C424.057,484.303,426.096,484.272,428.376,484.331z"/>
	</g>
</g>
<g id="&#x30EC;&#x30A4;&#x30E4;&#x30FC;_3">
	<g>
		<path style="stroke:#000000;stroke-width:12;stroke-miterlimit:10;" d="M561.259,575.584c-4.62,1.26-9.391,1.89-14.31,1.89
			c-3.24,0-6.21-0.301-8.91-0.899c-2.7-0.603-5.462-1.562-8.28-2.88c-2.82-1.322-5.731-3.122-8.729-5.4
			c-3.001-2.281-6.362-5.161-10.08-8.64c-10.201-9.479-18.602-18.271-25.2-26.37c-6.601-8.1-12.36-15.449-17.28-22.05
			c0-0.36,0.239-0.72,0.721-1.08c3.839-2.759,7.739-5.428,11.699-8.01c3.961-2.579,7.74-5.009,11.341-7.29
			c6.598-4.078,12.178-7.47,16.739-10.17c1.304-0.772,2.54-1.498,3.721-2.187c-2.131,0.313-4.272,0.575-6.423,0.787
			c-1.146,0.771-2.294,1.544-3.417,2.299c-3.122,2.101-5.282,3.51-6.48,4.23c-5.04,3.361-10.561,6.93-16.56,10.71
			c-6.002,3.78-12.122,7.532-18.36,11.25c-0.602,0.481-1.052,0.63-1.35,0.45c-0.301-0.18-0.211-0.689,0.27-1.53
			c4.438-7.439,8.429-14.099,11.97-19.98c2.401-3.989,4.698-7.74,6.908-11.288c-2.575-1.592-3.081-5.339-1.49-7.552
			c-2.701,0.079-5.552,0.12-8.567,0.12c-0.612,0-1.172-0.016-1.71-0.041c-0.665,0.553-1.314,1.122-1.941,1.709
			c1.956-0.133,3.899-0.229,5.811-0.229c0.599,0,0.899,0.18,0.899,0.54c0,0.121-0.031,0.211-0.09,0.27
			c-0.062,0.062-0.09,0.152-0.09,0.27c-2.16,4.441-4.5,9.121-7.021,14.04c-2.52,4.922-5.191,9.9-8.01,14.94
			c-2.821,5.04-5.67,10.021-8.55,14.94c-2.88,4.922-5.701,9.602-8.46,14.04c-3.001,4.801-5.791,9.031-8.37,12.69
			c-0.27,0.382-0.532,0.751-0.793,1.118c2.241-0.788,4.449-1.657,6.636-2.605c1.759-0.762,3.514-1.525,5.276-2.261
			c1.904-3.425,3.808-6.842,5.711-10.292c2.88-5.22,6.058-10.71,9.54-16.47c0.599-0.838,0.99-1.288,1.17-1.35
			c0.18-0.059,0.45,0.211,0.81,0.81c4.438,6.002,9.239,12.122,14.4,18.36c5.158,6.241,10.198,12.122,15.12,17.64
			c5.279,5.878,10.378,10.71,15.3,14.49c4.919,3.78,9.658,6.75,14.22,8.91c4.56,2.16,8.879,3.659,12.96,4.5
			c4.078,0.839,7.92,1.261,11.521,1.261c5.76,0,11.309-0.692,16.649-2.07c1.046-0.271,2.044-0.561,3.014-0.861
			c0.346-0.563,0.702-1.119,1.059-1.676C563.296,574.992,562.303,575.3,561.259,575.584z"/>
	</g>
</g>
</svg>
