<?xml version="1.0" encoding="iso-8859-1"?>
<!-- Generator: Adobe Illustrator 16.0.0, SVG Export Plug-In . SVG Version: 6.00 Build 0)  -->
<!DOCTYPE svg PUBLIC "-//W3C//DTD SVG 1.1//EN" "http://www.w3.org/Graphics/SVG/1.1/DTD/svg11.dtd">
<svg version="1.1" id="&#x30EC;&#x30A4;&#x30E4;&#x30FC;_1"
	 xmlns="http://www.w3.org/2000/svg" xmlns:xlink="http://www.w3.org/1999/xlink" x="0px" y="0px" width="717.317px"
	 height="300.506px" viewBox="0 0 717.317 300.506" style="enable-background:new 0 0 717.317 300.506;" xml:space="preserve">
<g>
	<path style="fill:#FFFFFF;stroke:#FFFFFF;stroke-width:12;stroke-miterlimit:10;" d="M298.519,251.564
		c-10.915,0-21.48-1.822-31.692-5.457c-10.218-3.639-19.802-8.467-28.754-14.481c-8.959-6.021-17.283-12.947-24.977-20.779
		c-7.7-7.836-14.626-15.951-20.779-24.348c-11.753-16.506-22.319-32.111-31.692-46.802c-9.379-14.691-16.725-26.93-22.038-36.73
		c-0.839-1.956,0-3.077,2.519-3.359c12.593-1.396,24.137-4.125,34.631-8.185c10.494-4.054,19.375-8.882,26.656-14.482
		c7.273-5.595,12.94-11.681,17-18.26c4.054-6.57,6.088-12.94,6.088-19.099c0-12.593-6.088-21.335-18.26-26.235
		C195.045,8.453,177.901,6,155.798,6c-17.913,0-35.123,1.678-51.632,5.038c-8.959,1.961-17.984,4.617-27.075,7.975
		c-9.098,3.358-17.283,6.999-24.557,10.914c-3.358,1.962-5.038,4.342-5.038,7.136c-0.563,2.519-1.259,5.392-2.099,8.605
		c-0.417,1.601-0.834,3.077-1.251,4.434c2.201-1.312,4.403-2.619,6.61-3.919c1.731-2.43,3.575-4.776,5.556-7.021
		c4.197-4.755,8.671-8.532,13.432-11.333c7.274-3.916,15.112-7.274,23.507-10.074c8.396-2.794,16.791-4.474,25.187-5.038
		c1.396,0,2.308,0.283,2.729,0.839c0.419,0.564,0.209,1.962-0.63,4.198C107.662,42.099,92.413,68.965,74.782,98.35
		c-16.627,27.709-36.912,59.08-60.754,94.006c11.364-2.999,22.576-6.449,33.518-10.621c1.902-3.84,4.123-8.199,6.668-13.074
		c5.037-9.654,10.842-20.427,17.42-32.324c6.572-11.89,13.498-24.136,20.779-36.729c7.274-12.594,14.272-24.484,20.988-35.68
		c6.716-11.188,12.869-21.054,18.47-29.593c5.594-8.534,9.931-14.62,13.013-18.26c1.954-2.236,4.263-3.705,6.925-4.408
		c2.657-0.695,5.385-1.049,8.186-1.049c8.113,0,14.829,0.984,20.149,2.938c5.312,1.962,9.582,4.408,12.802,7.347
		c3.214,2.938,5.457,6.296,6.716,10.074s1.889,7.346,1.889,10.704c0,9.517-2.17,17.841-6.506,24.976
		c-4.342,7.135-10.356,13.013-18.049,17.629c-7.7,4.619-16.792,8.048-27.286,10.285c-10.494,2.246-22.037,3.359-34.631,3.359
		c-0.839,0-1.258,0.562-1.258,1.678c2.518,4.2,5.666,9.59,9.444,16.16c3.778,6.58,7.766,13.369,11.963,20.36
		c4.198,6.999,8.251,13.788,12.174,20.359c3.915,6.578,7.274,12.107,10.074,16.58c9.792,15.113,19.237,27.98,28.334,38.62
		c9.091,10.631,18.68,19.308,28.754,26.026c10.074,6.713,21.126,11.68,33.162,14.9c12.029,3.213,26.025,4.826,41.977,4.826
		c9.17,0,17.866-1.002,26.104-2.977c0.977-1.699,1.987-3.378,2.992-5.061C312.062,250.819,305.303,251.564,298.519,251.564z"/>
</g>
<g>
	<path style="fill:#FFFFFF;stroke:#FFFFFF;stroke-width:12;stroke-miterlimit:10;" d="M386.126,73.092
		c5.311,0.144,10.349,0.071,15.111-0.209c3.447-0.144,6.756-0.383,9.936-0.711c3.096-3.147,6.049-6.545,8.904-9.988
		c-12.139,4.648-27.064,7.121-44.864,7.34h-18.05c-8.122,0-16.234-0.063-24.348-0.209c-8.12-0.137-16.233-0.209-24.346-0.209
		c-8.678,0-17.355-0.066-26.026-0.209c-8.677-0.139-16.515,0.492-23.507,1.888c-6.441,1.123-12.317,3.778-17.629,7.975
		c-5.32,4.197-10.147,9.308-14.483,15.322c-4.342,6.021-8.185,12.592-11.542,19.729c-1.622,3.448-3.141,6.944-4.567,10.49
		c2.44-0.998,4.879-1.995,7.331-2.96c3.653-6.805,7.485-12.694,11.509-17.604c6.992-8.531,14.901-15.04,23.717-19.517
		c8.815-4.475,19.028-7.413,30.642-8.818c11.61-1.396,24.978-2.098,40.089-2.098h13.853c2.793,0,3.496,1.259,2.099,3.778
		c-5.877,11.195-12.317,22.878-19.31,35.049c-6.998,12.175-14.207,24.63-21.617,37.36c-7.419,12.738-14.975,25.541-22.668,38.408
		c-7.7,12.877-15.321,25.471-22.877,37.779c-1.961,3.084-3.502,6.021-4.617,8.816c-1.122,2.801-1.68,5.32-1.68,7.557
		c0,3.639,0.905,6.44,2.729,8.395c1.816,1.96,4.197,3.43,7.136,4.408c2.938,0.975,6.296,1.535,10.074,1.679
		c3.778,0.137,7.766,0.21,11.963,0.21c5.038,0,10.494-0.073,16.371-0.21c5.876-0.144,11.19-0.492,15.951-1.05
		c1.68-1.12,2.1-2.236,1.259-3.356c-1.403,0.279-3.083,0.419-5.036,0.419h-5.038c-6.159,0-11.124-0.487-14.902-1.472
		c-3.778-0.975-6.65-2.236-8.605-3.775c-1.961-1.535-3.22-3.359-3.778-5.457c-0.563-2.1-0.839-4.263-0.839-6.509
		c0.276-3.357,1.188-7.062,2.729-11.123c1.535-4.054,3.569-8.46,6.087-13.223c10.914-19.867,23.014-41.139,36.31-63.803
		c13.289-22.669,27.771-45.894,43.446-69.684c1.954-2.792,4.892-4.197,8.816-4.197C376.052,73.026,380.806,72.953,386.126,73.092z"
		/>
</g>
<g>
	<path style="fill:#FFFFFF;stroke:#FFFFFF;stroke-width:12;stroke-miterlimit:10;" d="M696.013,285.898
		c-10.774,2.938-21.899,4.409-33.37,4.409c-7.557,0-14.482-0.702-20.779-2.1c-6.297-1.403-12.737-3.64-19.31-6.714
		c-6.577-3.084-13.366-7.283-20.357-12.595c-6.999-5.319-14.838-12.038-23.508-20.15c-23.789-22.104-43.379-42.605-58.768-61.494
		c-15.393-18.891-28.825-36.028-40.299-51.423c0-0.838,0.559-1.679,1.681-2.519c8.952-6.434,18.048-12.658,27.283-18.68
		c9.237-6.014,18.051-11.683,26.447-17c15.386-9.51,28.399-17.419,39.037-23.717c3.042-1.801,5.921-3.491,8.677-5.099
		c-4.97,0.729-9.961,1.342-14.979,1.836c-2.672,1.799-5.35,3.601-7.969,5.361c-7.28,4.901-12.318,8.185-15.112,9.866
		c-11.754,7.839-24.628,16.16-38.618,24.976c-13.996,8.816-28.27,17.565-42.816,26.235c-1.403,1.123-2.453,1.469-3.148,1.05
		c-0.701-0.419-0.491-1.608,0.629-3.568c10.352-17.347,19.656-32.879,27.914-46.593c5.6-9.306,10.957-18.051,16.107-26.327
		c-6.002-3.712-7.182-12.448-3.475-17.609c-6.299,0.183-12.947,0.278-19.978,0.278c-1.425,0-2.732-0.036-3.987-0.093
		c-1.551,1.289-3.063,2.617-4.525,3.988c4.56-0.312,9.092-0.535,13.551-0.535c1.396,0,2.098,0.419,2.098,1.259
		c0,0.282-0.073,0.492-0.21,0.629c-0.144,0.146-0.21,0.355-0.21,0.63c-5.037,10.355-10.494,21.269-16.371,32.742
		c-5.877,11.478-12.107,23.088-18.68,34.839c-6.577,11.756-13.223,23.371-19.938,34.842c-6.716,11.478-13.296,22.392-19.729,32.742
		c-6.998,11.195-13.505,21.062-19.52,29.593c-0.628,0.893-1.24,1.753-1.852,2.607c5.229-1.838,10.376-3.865,15.478-6.074
		c4.102-1.778,8.194-3.557,12.302-5.274c4.441-7.984,8.883-15.955,13.321-23.999c6.716-12.175,14.126-24.979,22.247-38.41
		c1.398-1.954,2.31-3.004,2.729-3.147c0.42-0.137,1.048,0.492,1.891,1.888c10.349,13.997,21.544,28.27,33.58,42.817
		c12.029,14.553,23.783,28.267,35.261,41.137c12.312,13.707,24.202,24.976,35.68,33.789c11.472,8.818,22.523,15.741,33.161,20.779
		c10.633,5.037,20.706,8.535,30.224,10.494c9.51,1.958,18.47,2.942,26.866,2.942c13.432,0,26.372-1.617,38.827-4.828
		c2.439-0.633,4.767-1.31,7.03-2.009c0.807-1.313,1.635-2.609,2.469-3.908C700.766,284.518,698.447,285.235,696.013,285.898z"/>
</g>
</svg>
